HIERARCHY
ROOT hip
{
  OFFSET 0 0 0
  CHANNELS 6 Xposition Yposition Zposition Zrotation Yrotation Xrotation
  JOINT abdomen
  {
    OFFSET 0 20.6881 -0.73152
    CHANNELS 3 Zrotation Xrotation Yrotation
    JOINT chest
    {
      OFFSET 0 11.7043 -0.48768
      CHANNELS 3 Zrotation Xrotation Yrotation
      JOINT neck
      {
        OFFSET 0 22.1894 -2.19456
        CHANNELS 3 Zrotation Xrotation Yrotation
        JOINT head
        {
          OFFSET -0.24384 7.07133 1.2192
          CHANNELS 3 Zrotation Xrotation Yrotation
          JOINT leftEye
          {
            OFFSET 4.14528 8.04674 8.04672
            CHANNELS 3 Zrotation Xrotation Yrotation
            End Site
            {
              OFFSET 1 0 0
            }
          }
          JOINT rightEye
          {
            OFFSET -3.6576 8.04674 8.04672
            CHANNELS 3 Zrotation Xrotation Yrotation
            End Site
            {
              OFFSET 1 0 0
            }
          }
        }
      }
      JOINT rCollar
      {
        OFFSET -2.68224 19.2634 -4.8768
        CHANNELS 3 Zrotation Xrotation Yrotation
        JOINT rShldr
        {
          OFFSET -8.77824 -1.95073 1.46304
          CHANNELS 3 Zrotation Xrotation Yrotation
          JOINT rForeArm
          {
            OFFSET -28.1742 -1.7115 0.48768
            CHANNELS 3 Zrotation Xrotation Yrotation
            JOINT rHand
            {
              OFFSET -22.5879 0.773209 7.07136
              CHANNELS 3 Zrotation Xrotation Yrotation
              JOINT rThumb1
              {
                OFFSET -1.2192 -0.487915 3.41376
                CHANNELS 3 Zrotation Xrotation Yrotation
                JOINT rThumb2
                {
                  OFFSET -3.37035 -0.52449 3.41376
                  CHANNELS 3 Zrotation Xrotation Yrotation
                  End Site
                  {
                    OFFSET -1.78271 -1.18214 1.43049
                  }
                }
              }
              JOINT rIndex1
              {
                OFFSET -7.75947 0.938293 5.60832
                CHANNELS 3 Zrotation Xrotation Yrotation
                JOINT rIndex2
                {
                  OFFSET -2.54057 -0.884171 1.56538
                  CHANNELS 3 Zrotation Xrotation Yrotation
                  End Site
                  {
                    OFFSET -1.62519 -0.234802 1.16502
                  }
                }
              }
              JOINT rMid1
              {
                OFFSET -8.24714 1.18213 3.41376
                CHANNELS 3 Zrotation Xrotation Yrotation
                JOINT rMid2
                {
                  OFFSET -3.10165 -0.590103 1.0647
                  CHANNELS 3 Zrotation Xrotation Yrotation
                  End Site
                  {
                    OFFSET -2.48547 -0.328903 0.83742
                  }
                }
              }
              JOINT rRing1
              {
                OFFSET -8.82822 0.546677 1.51678
                CHANNELS 3 Zrotation Xrotation Yrotation
                JOINT rRing2
                {
                  OFFSET -2.60934 -0.819778 -0.0198488
                  CHANNELS 3 Zrotation Xrotation Yrotation
                  End Site
                  {
                    OFFSET -2.33842 -0.294052 0.168128
                  }
                }
              }
              JOINT rPinky1
              {
                OFFSET -8.27202 -0.0477905 -0.4584
                CHANNELS 3 Zrotation Xrotation Yrotation
                JOINT rPinky2
                {
                  OFFSET -1.82734 -0.647385 -0.700984
                  CHANNELS 3 Zrotation Xrotation Yrotation
                  End Site
                  {
                    OFFSET -1.69225 -0.51767 -0.607171
                  }
                }
              }
            }
          }
        }
      }
      JOINT lCollar
      {
        OFFSET 2.68224 19.2634 -4.8768
        CHANNELS 3 Zrotation Xrotation Yrotation
        JOINT lShldr
        {
          OFFSET 8.77824 -1.95073 1.46304
          CHANNELS 3 Zrotation Xrotation Yrotation
          JOINT lForeArm
          {
            OFFSET 28.1742 -1.7115 0.48768
            CHANNELS 3 Zrotation Xrotation Yrotation
            JOINT lHand
            {
              OFFSET 22.5879 0.773209 7.07136
              CHANNELS 3 Zrotation Xrotation Yrotation
              JOINT lThumb1
              {
                OFFSET 1.2192 -0.487915 3.41376
                CHANNELS 3 Zrotation Xrotation Yrotation
                JOINT lThumb2
                {
                  OFFSET 3.37035 -0.52449 3.41376
                  CHANNELS 3 Zrotation Xrotation Yrotation
                  End Site
                  {
                    OFFSET 1.78271 -1.18214 1.43049
                  }
                }
              }
              JOINT lIndex1
              {
                OFFSET 7.75947 0.938293 5.60832
                CHANNELS 3 Zrotation Xrotation Yrotation
                JOINT lIndex2
                {
                  OFFSET 2.54057 -0.884171 1.56538
                  CHANNELS 3 Zrotation Xrotation Yrotation
                  End Site
                  {
                    OFFSET 1.62519 -0.234802 1.16502
                  }
                }
              }
              JOINT lMid1
              {
                OFFSET 8.24714 1.18213 3.41376
                CHANNELS 3 Zrotation Xrotation Yrotation
                JOINT lMid2
                {
                  OFFSET 3.10165 -0.590103 1.0647
                  CHANNELS 3 Zrotation Xrotation Yrotation
                  End Site
                  {
                    OFFSET 2.48547 -0.328903 0.83742
                  }
                }
              }
              JOINT lRing1
              {
                OFFSET 8.82822 0.546677 1.51678
                CHANNELS 3 Zrotation Xrotation Yrotation
                JOINT lRing2
                {
                  OFFSET 2.60934 -0.819778 -0.0198488
                  CHANNELS 3 Zrotation Xrotation Yrotation
                  End Site
                  {
                    OFFSET 2.33842 -0.294052 0.168128
                  }
                }
              }
              JOINT lPinky1
              {
                OFFSET 8.27202 -0.0477905 -0.4584
                CHANNELS 3 Zrotation Xrotation Yrotation
                JOINT lPinky2
                {
                  OFFSET 1.82734 -0.647385 -0.700984
                  CHANNELS 3 Zrotation Xrotation Yrotation
                  End Site
                  {
                    OFFSET 1.69225 -0.51767 -0.607171
                  }
                }
              }
            }
          }
        }
      }
    }
  }
  JOINT rButtock
  {
    OFFSET -8.77824 4.35084 1.2192
    CHANNELS 3 Zrotation Xrotation Yrotation
    JOINT rThigh
    {
      OFFSET 0 -1.70687 -2.19456
      CHANNELS 3 Zrotation Xrotation Yrotation
      JOINT rShin
      {
        OFFSET 0 -36.8199 0.73152
        CHANNELS 3 Zrotation Xrotation Yrotation
        JOINT rFoot
        {
          OFFSET 0.73152 -45.1104 -5.12064
          CHANNELS 3 Zrotation Xrotation Yrotation
          End Site
          {
            OFFSET -1.1221 -3.69964 12.103
          }
        }
      }
    }
  }
  JOINT lButtock
  {
    OFFSET 8.77824 4.35084 1.2192
    CHANNELS 3 Zrotation Xrotation Yrotation
    JOINT lThigh
    {
      OFFSET 0 -1.70687 -2.19456
      CHANNELS 3 Zrotation Xrotation Yrotation
      JOINT lShin
      {
        OFFSET 0 -36.8199 0.73152
        CHANNELS 3 Zrotation Xrotation Yrotation
        JOINT lFoot
        {
          OFFSET -0.73152 -45.1104 -5.12064
          CHANNELS 3 Zrotation Xrotation Yrotation
          End Site
          {
            OFFSET 1.1221 -3.69964 12.103
          }
        }
      }
    }
  }
}
MOTION
Frames:	4
Frame Time:	0.03333
-35.902899999999995 55.6803 -68.91080000000001 13.103937 54.773646 13.683505 -14.640747 9.985721 1.980111 5.46733 -8.934434 3.707934 -15.214996 21.508477 -55.130408 31.606524 -9.541991 23.324262 0.00124 0.0 0.002943 0.000355 -0.0 -0.002142 -44.916762 -86.288012 -66.524833 -70.811724 -60.1288 -106.312958 -102.069763 -42.676084 -127.954375 22.855509 -39.901048 15.712109 -176.92743 -14.532596 89.65836 -46.500535 -15.316073 5.608804 -160.101012 -33.16235 122.699718 -55.379365 56.743758 41.427372 -125.643143 49.839537 115.273734 -3.134952 17.357701 3.586878 -145.117598 0.267707 -179.212563 -152.351469 -25.284363 -175.287337 -24.457347 -37.23599 -23.538662 -166.69754 71.730719 -147.565348 0.272503 1.606954 -0.360119 96.302625 -10.612301 149.648182 176.165818 -14.472611 79.949969 10.605375 -21.668989 5.982244 -0.568314 -0.561305 0.083695 -10.343497 -15.264193 8.507169 151.353956 -17.158663 -121.131992 62.154094 57.360461 -46.046005 -78.538459 -80.918453 -49.689234 86.047965 64.055105 -77.697638 145.120444 1.974204 179.749351 63.186377 87.658483 -76.280009 1.602502 -4.015188 1.48613 159.437791 55.568719 150.075416 179.997677 75.749817 0.00159 149.565953 5.747976 -99.674457 -72.930568 -7.712085 -169.736531 -150.839755 -0.772971 95.753662 -0.000783 -0.000175 -0.000391 12.912517 8.742616 123.543736 44.036349 -17.757458 73.455893 -35.197213 7.598778 -154.108885
-35.960300000000004 55.649800000000006 -68.8242 13.271101 54.715995 13.940333 -14.631717 9.814704 -0.0 5.653538 -8.715103 5.726111 -16.024162 26.91886 -86.453599 37.749428 7.858919 49.82868 -0.000949 0.0 -0.003254 0.000136 0.0 0.004322 -155.445429 -3.134683 161.75732 158.989317 9.186609 -168.052996 -178.955071 7.962173 114.099595 155.846139 -35.930769 139.317199 -171.652902 -9.336554 89.949175 44.268495 -67.277868 34.732173 -46.209042 39.652699 36.318218 -172.39174 -23.056085 111.456144 -153.320582 13.629435 138.863885 10.047059 -20.320824 -1.158623 0.004748 1.687697 0.529077 9.097537 12.71452 1.664756 -10.078461 -20.71198 -9.540102 -146.772762 11.163835 -143.491965 157.796944 -22.115354 -165.46775 122.340402 62.411598 -63.453862 -122.539518 -7.592406 29.306329 62.80062 54.348885 -41.978106 155.112829 6.917914 -87.738122 -25.458075 -54.479886 -26.440145 138.093361 5.495162 -114.616044 3.305156 21.726815 3.853453 159.618845 -3.453375 -142.728998 174.487974 -36.951653 -143.160417 0.007348 -0.831364 0.261224 78.220329 78.780502 -91.706254 145.497098 13.104373 142.110597 9.599115 -23.320003 12.080945 0.00174 0.000822 0.00174 -59.736895 -53.971919 -180.0 -73.959663 -30.596152 -140.49477 -179.620396 65.863322 113.921221 -179.997114 75.750497 -0.002978 -108.658461 76.727026 -0.0 28.786948 18.170844 -101.450665 14.604586 -5.725754 64.615229
-36.0269 55.616200000000006 -68.7124 13.526671 54.684565 14.236445 -12.38284 6.777062 -103.93239 4.864404 4.522098 108.741904 -13.472196 18.88087 -38.381813 25.078829 -17.398587 7.341912 0.001116 0.0 0.003282 1.6e-05 -0.0 -0.004292 -155.613326 -4.236445 161.991099 35.507228 77.491675 -59.403483 -133.836231 -17.525647 153.227107 49.136873 -59.630564 39.425604 -173.771233 -11.439742 89.891154 -145.653009 7.939606 75.333741 -151.354519 -17.158188 121.132717 -79.234883 57.450791 61.547315 173.121947 -66.2976 137.613155 2.986907 0.154374 0.277104 -145.120055 0.267781 -179.212393 -148.084933 -43.197496 -170.545849 -159.764102 65.345657 -151.082238 54.082173 82.683306 -17.631566 143.299292 38.837386 -147.73719 -76.30748 -15.501249 -89.851457 6.904673 -27.561663 -97.188829 8.103088 -31.070878 7.322588 93.744178 37.964129 -53.548228 -168.00857 -44.851595 -73.408855 153.453879 -21.068162 -121.742994 11.397111 35.997793 -2.853377 -7.904543 -24.807518 3.014127 -11.288744 -24.950013 1.537953 66.265109 72.86746 -83.837725 80.860852 83.052018 -89.796075 -6.228599 18.789563 -5.572915 -14.872271 44.055015 -8.639528 -179.830469 75.748217 -0.130663 148.247257 6.562823 3.34787 16.992106 73.662444 101.855987 66.297739 86.040249 -141.333326 -179.996296 75.748742 -0.003822 -113.25951 75.190546 112.56543 9.571127 -33.391568 173.508747 -24.709391 -51.402687 45.665627
-36.0966 55.571099999999994 -68.5723 13.673546 54.721445 14.434605 -14.724693 4.924914 -180.0 -5.511055 4.001877 -174.851798 -10.904847 16.810534 -20.826833 15.445218 -23.266123 -11.209855 -0.000494 -0.0 0.004607 -0.001599 0.0 -0.002965 2.460071 -18.216333 -3.669158 52.554182 -6.04071 15.755154 171.159984 -22.694119 109.943092 161.073509 -26.054783 143.459816 -103.199151 36.330992 60.111626 -156.692736 -28.132136 77.980181 -77.667173 43.030878 64.538512 1.039114 8.048807 -2.951807 -154.142922 11.634665 139.428757 -163.225228 -4.794655 142.978413 -0.015189 -1.323113 -0.416118 -154.065941 -65.023373 -178.243473 -75.779907 -51.667585 -74.249151 -8.188658 -23.818933 -11.094705 33.843281 -85.665451 55.260125 -135.931543 10.009663 137.546561 -86.461551 31.126214 -94.419153 67.743281 55.963497 -46.787523 171.653599 -9.336328 -89.948742 -129.476234 -56.390146 -92.431603 152.104366 -18.556797 -121.367824 171.336138 -34.927384 -117.74299 0.058559 0.16782 -0.031059 -1.009506 6.425184 -0.951725 145.107259 3.75846 -179.690782 150.644097 -35.149066 173.031729 136.279184 -10.957339 133.619512 171.092636 71.090573 143.038699 -0.000267 -0.000808 0.000343 -60.282392 -51.907934 -0.0 69.379995 28.299657 12.092736 -151.924896 -30.063825 95.976613 179.921727 75.75044 0.060329 -109.33041 76.575871 0.0 29.77332 21.816848 -131.796682 105.29146 -62.864681 -171.743016
